<mxfile host="app.diagrams.net" modified="2023-06-29T12:05:38.022Z" agent="Mozilla/5.0 (X11; Linux x86_64) AppleWebKit/537.36 (KHTML, like Gecko) Chrome/114.0.0.0 Safari/537.36" etag="aIvgYKXWRpCGDHze4p4b" version="21.3.0" type="github">
  <diagram name="페이지-1" id="PDRqqF2g-QZ5M8zGbVsR">
    <mxGraphModel dx="367" dy="220" grid="1" gridSize="10" guides="1" tooltips="1" connect="1" arrows="1" fold="1" page="1" pageScale="1" pageWidth="827" pageHeight="1169" math="0" shadow="0">
      <root>
        <mxCell id="0" />
        <mxCell id="1" parent="0" />
      </root>
    </mxGraphModel>
  </diagram>
</mxfile>
